<?xml version="1.0" encoding="UTF-8" standalone="no"?>
<!-- Created with Inkscape (http://www.inkscape.org/) -->

<svg
   xmlns:dc="http://purl.org/dc/elements/1.1/"
   xmlns:cc="http://creativecommons.org/ns#"
   xmlns:rdf="http://www.w3.org/1999/02/22-rdf-syntax-ns#"
   xmlns:svg="http://www.w3.org/2000/svg"
   xmlns="http://www.w3.org/2000/svg"
   xmlns:sodipodi="http://sodipodi.sourceforge.net/DTD/sodipodi-0.dtd"
   xmlns:inkscape="http://www.inkscape.org/namespaces/inkscape"
   version="1.1"
   width="320"
   height="304.53214"
   id="svg2"
   inkscape:version="0.48.5 r10040"
   sodipodi:docname="555555555555555555.svg">
  <sodipodi:namedview
     pagecolor="#ffffff"
     bordercolor="#666666"
     borderopacity="1"
     objecttolerance="10"
     gridtolerance="10"
     guidetolerance="10"
     inkscape:pageopacity="0"
     inkscape:pageshadow="2"
     inkscape:window-width="1366"
     inkscape:window-height="705"
     id="namedview18"
     showgrid="false"
     fit-margin-top="0"
     fit-margin-left="0"
     fit-margin-right="0"
     fit-margin-bottom="0"
     inkscape:zoom="0.47041492"
     inkscape:cx="278.33121"
     inkscape:cy="363.78147"
     inkscape:window-x="-8"
     inkscape:window-y="-8"
     inkscape:window-maximized="1"
     inkscape:current-layer="svg2" />
  <defs
     id="defs4" />
  <metadata
     id="metadata7">
    <rdf:RDF>
      <cc:Work
         rdf:about="">
        <dc:format>image/svg+xml</dc:format>
        <dc:type
           rdf:resource="http://purl.org/dc/dcmitype/StillImage" />
        <dc:title />
      </cc:Work>
    </rdf:RDF>
  </metadata>
  <g
     id="layer1"
     transform="matrix(15.565149,0,0,15.565149,-5074.8481,-8268.3873)">
    <g
       transform="translate(-19.180271,-11.490485)"
       id="g3812">
      <path
         d="m 314.66252,540.15173 a 3.844895,3.5355356 0 1 1 -7.68979,0 3.844895,3.5355356 0 1 1 7.68979,0 z"
         transform="matrix(1.4828609,0,0,1.6238864,-105.35285,-323.73505)"
         id="path3810"
         style="fill:#ffffff;fill-opacity:1;stroke:none"
         inkscape:connector-curvature="0" />
      <g
         transform="matrix(1.25,0,0,-1.25,358.48568,556.16456)"
         id="g2842"
         style="fill:#204c8f;fill-opacity:1;stroke:none">
        <path
           d="m 0,0 c 0,0 -0.023,-1.659 -2.326,-1.86 0,0 -1.736,-0.226 -2.307,1.818 0,0 -1.877,0.223 -1.982,2.344 0,0 0.123,2.039 1.939,2.243 0,0 0.145,1.755 2.244,1.919 0,0 1.571,0.227 2.327,-1.817 0,0 1.98,-0.529 1.916,-2.203 C 1.811,2.444 2.078,0.569 0,0 M 5.73,4.728 2.873,3.708 2.75,4.034 5.646,5.077 5.549,5.382 C 5.361,5.382 4.588,5.339 4.037,5.548 3.484,5.749 2.57,6.544 2.57,6.544 1.998,6.954 0.812,6.872 0.812,6.872 0.795,8.096 -0.59,8.729 -0.59,8.729 c -1.023,0.571 -1.199,2.02 -1.199,2.02 l -0.484,0 0.027,-2.979 -0.387,0.021 0.039,2.979 -0.47,-0.021 C -3.002,9.544 -4.123,8.831 -4.123,8.831 -5.631,8.138 -5.758,6.813 -5.758,6.813 -7.02,6.896 -7.822,6.057 -7.822,6.057 -8.754,5.098 -10.205,5.548 -10.205,5.548 L -10.35,5.14 -7.453,4.137 -7.635,3.75 -10.49,4.728 -10.613,4.301 c 1.062,-0.447 1.445,-1.529 1.445,-1.529 0.475,-1.858 1.494,-2.308 1.494,-2.308 -0.654,-1.509 0.102,-2.465 0.162,-2.672 0.059,-0.201 0.102,-0.484 0.102,-0.484 0.039,-1.006 -0.348,-1.353 -0.348,-1.353 l 0.326,-0.244 1.717,2.288 0.326,-0.228 -1.631,-2.325 0.305,-0.248 c 0.838,0.921 2.508,0.719 2.508,0.719 0.998,-0.285 1.92,0.736 1.92,0.736 1.06,-1.041 2.162,-0.778 2.162,-0.778 C 1.119,-3.881 2.1,-4.882 2.1,-4.882 l 0.365,0.248 -1.776,2.384 0.348,0.268 1.797,-2.368 0.307,0.244 C 2.529,-3.335 2.979,-2.104 2.979,-2.104 3.791,-0.389 3,0.586 3,0.586 4.244,0.979 4.363,2.382 4.363,2.382 4.402,3.3 5.834,4.364 5.834,4.364 L 5.73,4.728 z"
           id="path2844"
           style="fill:#204c8f;fill-opacity:1;fill-rule:nonzero;stroke:none"
           inkscape:connector-curvature="0" />
      </g>
      <g
         transform="matrix(1.25,0,0,-1.25,357.20881,550.37231)"
         id="g2846"
         style="fill:#204c8f;fill-opacity:1;stroke:none">
        <path
           d="m 0,0 c -0.613,1.115 -1.348,0.991 -1.348,0.991 -0.976,0 -1.367,-1.036 -1.367,-1.036 L 0,-0.089 0,0 z"
           id="path2848"
           style="fill:#204c8f;fill-opacity:1;fill-rule:nonzero;stroke:none"
           inkscape:connector-curvature="0" />
      </g>
      <g
         transform="matrix(1.25,0,0,-1.25,358.38068,551.47706)"
         id="g2850"
         style="fill:#204c8f;fill-opacity:1;stroke:none">
        <path
           d="M 0,0 -1.797,0.019 -1.779,-1.001 0,-1.062 -0.041,-1.856 -1.797,-1.835 -1.814,-2.913 0.021,-2.938 c 1.122,0.51 1.038,1.609 1.038,1.609 C 0.957,-0.392 0,0 0,0"
           id="path2852"
           style="fill:#204c8f;fill-opacity:1;fill-rule:nonzero;stroke:none"
           inkscape:connector-curvature="0" />
      </g>
      <g
         transform="matrix(1.25,0,0,-1.25,355.60481,557.39506)"
         id="g2854"
         style="fill:#204c8f;fill-opacity:1;stroke:none">
        <path
           d="m 0,0 c 0.914,0 1.406,0.999 1.406,0.999 l -2.859,0 C -0.842,-0.099 0,0 0,0"
           id="path2856"
           style="fill:#204c8f;fill-opacity:1;fill-rule:nonzero;stroke:none"
           inkscape:connector-curvature="0" />
      </g>
      <g
         transform="matrix(1.25,0,0,-1.25,353.78831,555.09769)"
         id="g2858"
         style="fill:#204c8f;fill-opacity:1;stroke:none">
        <path
           d="M 0,0 0.961,0.019 0.896,2.878 -0.691,2.915 C -1.834,2.489 -1.895,1.427 -1.895,1.427 -1.816,0.469 -1.041,-0.017 -1.041,-0.017 L -0.814,0 l 0,1.813 L 0.021,1.795 0,0 z"
           id="path2860"
           style="fill:#204c8f;fill-opacity:1;fill-rule:nonzero;stroke:none"
           inkscape:connector-curvature="0" />
      </g>
    </g>
  </g>
</svg>
